<?xml version="1.0" encoding="utf-8"?>
<svg viewBox="0 0 500 500" xmlns="http://www.w3.org/2000/svg">
  <g fill="#500778" fill-rule="none" stroke="none" stroke-width="1" stroke-linecap="butt" stroke-linejoin="miter" stroke-miterlimit="10" stroke-dasharray="" stroke-dashoffset="0" font-family="none" font-weight="none" font-size="none" text-anchor="none" style="mix-blend-mode: normal" transform="matrix(1, 0, 0, 1, 20.96975, -43.882348)">
    <g data-paper-data="{&quot;isGlobalGroup&quot;:true,&quot;bounds&quot;:{&quot;x&quot;:65,&quot;y&quot;:183.06851760565752,&quot;width&quot;:420,&quot;height&quot;:103.86296478868496}}">
      <g data-paper-data="{&quot;isSecondaryText&quot;:true}" fill-rule="nonzero"/>
      <g data-paper-data="{&quot;isIcon&quot;:&quot;true&quot;,&quot;selectedEffects&quot;:{&quot;container&quot;:&quot;&quot;,&quot;transformation&quot;:&quot;&quot;,&quot;pattern&quot;:&quot;&quot;},&quot;fillRule&quot;:&quot;evenodd&quot;,&quot;fillRuleOriginal&quot;:&quot;evenodd&quot;,&quot;iconType&quot;:&quot;icon&quot;,&quot;rawIconId&quot;:&quot;3012471&quot;,&quot;combineTerms&quot;:&quot;sight&quot;,&quot;iconStyle&quot;:&quot;standalone&quot;,&quot;bounds&quot;:{&quot;x&quot;:65,&quot;y&quot;:183.06851760565752,&quot;width&quot;:79.0737467869499,&quot;height&quot;:103.86296478868496},&quot;suitableAsStandaloneIcon&quot;:true}" fill-rule="evenodd">
        <path d="M 225.759 167.8 C 236.662 167.8 245.582 160.073 245.582 150.628 L 245.582 96.966 C 245.582 87.521 236.662 79.794 225.759 79.794 C 214.855 79.794 205.935 87.521 205.935 96.966 L 205.935 150.197 C 205.935 159.642 214.855 167.8 225.759 167.8 Z M 106.33 173.378 C 109.799 179.818 116.735 183.255 124.664 183.255 C 127.639 183.255 130.115 182.823 133.09 181.536 C 143.001 177.673 147.461 167.369 143.001 158.783 L 116.242 109.416 C 111.782 100.83 99.887 96.966 89.975 100.83 C 80.063 104.693 75.603 114.998 80.063 123.583 L 106.33 173.378 Z M 318.427 181.536 C 320.904 182.823 323.879 183.255 326.853 183.255 C 334.284 183.255 341.719 179.391 345.188 173.378 L 371.454 124.011 C 375.914 115.425 371.947 105.125 361.542 101.261 C 351.63 97.397 339.736 100.83 335.276 109.847 L 309.013 159.215 C 304.056 167.369 308.516 177.673 318.427 181.536 Z M 400.691 273.83 C 397.715 270.826 321.896 194.413 225.759 194.413 C 129.622 194.413 53.802 270.826 50.827 274.261 C 45.375 279.843 45.375 288.425 50.827 294.007 C 53.802 296.584 129.622 372.996 225.759 372.996 C 321.896 372.996 397.715 296.584 400.691 293.147 C 406.142 287.997 406.142 279.411 400.691 273.83 Z M 211.881 233.48 C 223.775 233.48 233.687 242.063 233.687 252.367 C 233.687 262.67 223.775 271.257 211.881 271.257 C 199.99 271.257 190.078 262.67 190.078 252.367 C 190.078 242.063 199.493 233.48 211.881 233.48 Z M 225.759 342.946 C 164.804 342.946 110.79 303.024 88.49 284.134 C 102.364 272.115 129.622 251.508 162.821 238.199 C 159.352 245.071 157.369 252.798 157.369 260.953 C 157.369 293.579 188.096 320.193 225.759 320.193 C 263.422 320.193 294.144 293.579 294.144 260.953 C 294.144 252.798 292.16 245.071 288.692 238.199 C 321.896 251.508 349.154 272.115 363.027 284.134 C 340.728 302.592 286.714 342.946 225.759 342.946 Z M 345.188 394.031 C 340.728 385.445 328.832 381.581 318.921 385.445 C 309.013 389.309 304.553 399.612 309.013 408.199 L 335.276 457.565 C 338.744 464.002 345.681 467.438 353.614 467.438 C 356.584 467.438 359.061 467.007 362.036 465.72 C 371.947 461.857 376.407 451.553 371.947 442.97 L 345.188 394.031 Z M 133.09 385.872 C 123.179 382.009 111.284 385.445 106.824 394.459 L 80.562 443.825 C 76.102 452.412 80.063 462.715 90.469 466.58 C 92.95 467.866 95.92 468.297 98.895 468.297 C 106.33 468.297 113.76 464.434 117.228 458.424 L 143.496 409.054 C 147.461 400.04 143.001 389.736 133.09 385.872 Z M 225.759 399.612 C 214.855 399.612 205.935 407.34 205.935 416.781 L 205.935 470.015 C 205.935 479.456 214.855 487.184 225.759 487.184 C 236.662 487.184 245.582 479.456 245.582 470.015 L 245.582 417.213 C 245.582 407.767 236.662 399.612 225.759 399.612 Z" data-paper-data="{&quot;isPathIcon&quot;:true}" style=""/>
      </g>
    </g>
  </g>
  <g class="watermark-group" style="opacity:0.040000010281801224" transform="matrix(1, 0, 0, 1, -34.445851, -71.590166)"/>
</svg>