<?xml version="1.0" encoding="utf-8"?>
<svg viewBox="0 0 500 500" xmlns="http://www.w3.org/2000/svg">
  <g fill="#500778" fill-rule="none" stroke="none" stroke-width="1" stroke-linecap="butt" stroke-linejoin="miter" stroke-miterlimit="10" stroke-dasharray="" stroke-dashoffset="0" font-family="none" font-weight="none" font-size="none" text-anchor="none" style="mix-blend-mode: normal" transform="matrix(1, 0, 0, 1, -23.740554, 15.311592)">
    <g data-paper-data="{&quot;isGlobalGroup&quot;:true,&quot;bounds&quot;:{&quot;x&quot;:65,&quot;y&quot;:183.06851760565752,&quot;width&quot;:420,&quot;height&quot;:103.86296478868496}}">
      <g data-paper-data="{&quot;isSecondaryText&quot;:true}" fill-rule="nonzero">
        <path d="M177.10308,260.48613c-2.78561,0 -5.23152,1.6759 -5.23152,4.16709c0,2.55914 1.90237,3.85003 4.37092,4.71063l0.70206,0.27177c1.81178,0.65677 2.53649,1.10972 2.53649,2.35531c0,1.38148 -1.31354,1.94766 -2.55914,1.94766c-1.47207,0 -2.71767,-0.99648 -3.17062,-2.15149l-2.60443,1.15501c0.8153,2.24208 3.14797,3.71415 5.77505,3.71415c2.58179,0 5.77505,-1.42678 5.77505,-4.66533c0,-2.21943 -1.35884,-3.98592 -4.91445,-5.20887l-0.70206,-0.22647c-1.56266,-0.52089 -2.01561,-0.99648 -2.01561,-1.90237c0,-0.8606 0.95118,-1.44942 2.03825,-1.44942c1.10972,0 1.99296,0.49824 2.40061,1.33619l2.78561,-0.92854c-0.79265,-1.56266 -2.60443,-3.12532 -5.18622,-3.12532z" data-paper-data="{&quot;glyphName&quot;:&quot;S&quot;,&quot;glyphIndex&quot;:0,&quot;firstGlyphOfWord&quot;:true,&quot;word&quot;:1}"/>
        <path d="M213.43275,260.64466h-3.2612v15.85308h3.2612z" data-paper-data="{&quot;glyphName&quot;:&quot;I&quot;,&quot;glyphIndex&quot;:1,&quot;word&quot;:1}"/>
        <path d="M259.50117,268.45796h-5.52593v2.78561h2.0609c-0.61148,1.47207 -1.97031,2.33267 -3.7368,2.33267c-2.51384,0 -4.75592,-2.17414 -4.75592,-5.02769c0,-2.85355 2.19678,-4.9824 4.68798,-4.9824c1.44942,0 2.64973,0.63412 3.3065,1.38148l1.99296,-2.17414c-1.10972,-1.26825 -2.89885,-2.28737 -5.3674,-2.28737c-4.14445,0 -8.13036,3.3065 -8.13036,8.08507c0,4.77857 3.96327,8.08507 8.19831,8.08507c4.14445,0 7.58683,-3.14797 7.26977,-8.19831z" data-paper-data="{&quot;glyphName&quot;:&quot;G&quot;,&quot;glyphIndex&quot;:2,&quot;word&quot;:1}"/>
        <path d="M307.60825,260.64466v6.59035h-7.08859v-6.59035h-3.19326v15.85308h3.19326v-6.54506h7.08859v6.54506h3.19326v-15.85308z" data-paper-data="{&quot;glyphName&quot;:&quot;H&quot;,&quot;glyphIndex&quot;:3,&quot;word&quot;:1}"/>
        <path d="M358.34719,260.64466h-11.61804v2.83091h4.1218v13.02217h3.39709v-13.02217h4.09915z" data-paper-data="{&quot;glyphName&quot;:&quot;T&quot;,&quot;glyphIndex&quot;:4,&quot;lastGlyphOfWord&quot;:true,&quot;word&quot;:1}"/>
      </g>
      <g data-paper-data="{&quot;isPrimaryText&quot;:true}" fill-rule="nonzero">
        <path d="M219.68077,194.49538h-7.89704c-2.71461,0 -3.12591,1.80974 -3.70174,2.79687l-11.352,20.23618l-11.26974,-20.23618c-0.65809,-0.98713 -0.98713,-2.79687 -3.784,-2.79687h-8.14383c-1.892,0 -2.38557,0.90487 -2.38557,2.38557v49.43879c0,1.892 0.90487,2.38557 2.38557,2.38557h8.14383c1.4807,0 2.38557,-0.49357 2.38557,-2.38557v-27.88644l8.30835,14.39565c0.4113,0.65809 1.06939,1.72748 2.3033,1.72748h4.11304c1.23391,0 1.97426,-1.06939 2.38557,-1.72748l8.22609,-14.39565v27.88644c0,1.892 0.90487,2.38557 2.38557,2.38557h7.89704c1.4807,0 2.38557,-0.49357 2.38557,-2.38557v-49.43879c0,-1.4807 -0.49357,-2.38557 -2.38557,-2.38557z" data-paper-data="{&quot;glyphName&quot;:&quot;M&quot;,&quot;glyphIndex&quot;:0,&quot;firstGlyphOfWord&quot;:true,&quot;word&quot;:1}"/>
        <path d="M271.17608,237.27104h-36.35931c-1.4807,0 -2.38557,0.49357 -2.38557,2.38557v6.74539c0,1.892 0.90487,2.38557 2.38557,2.38557h36.35931c1.4807,0 2.38557,-0.49357 2.38557,-2.38557v-6.74539c0,-1.892 -0.90487,-2.38557 -2.38557,-2.38557zM267.06303,215.88321h-28.13322c-1.4807,0 -2.38557,0.49357 -2.38557,2.38557v6.74539c0,1.892 0.90487,2.38557 2.38557,2.38557h28.13322c1.4807,0 2.38557,-0.49357 2.38557,-2.38557v-6.74539c0,-1.892 -0.90487,-2.38557 -2.38557,-2.38557zM271.17608,194.6599h-36.35931c-1.4807,0 -2.38557,0.49357 -2.38557,2.38557v6.74539c0,1.892 0.90487,2.38557 2.38557,2.38557h36.35931c1.4807,0 2.38557,-0.49357 2.38557,-2.38557v-6.74539c0,-1.892 -0.90487,-2.38557 -2.38557,-2.38557z" data-paper-data="{&quot;glyphName&quot;:&quot;ξ&quot;,&quot;glyphIndex&quot;:1,&quot;word&quot;:1}"/>
        <path d="M325.46825,194.57764h-7.89704c-1.4807,0 -2.38557,0.49357 -2.38557,2.38557v28.54452l-17.43931,-28.13322c-1.06939,-1.64522 -1.64522,-2.79687 -3.70174,-2.79687h-7.73252c-1.892,0 -2.38557,0.90487 -2.38557,2.38557v49.35652c0,1.892 0.90487,2.38557 2.38557,2.38557h8.14383c1.4807,0 2.38557,-0.49357 2.38557,-2.38557v-28.62678l17.43931,28.21548c1.06939,1.64522 1.64522,2.79687 3.70174,2.79687h7.48574c1.892,0 2.38557,-0.90487 2.38557,-2.38557v-49.35652c0,-1.892 -0.90487,-2.38557 -2.38557,-2.38557z" data-paper-data="{&quot;glyphName&quot;:&quot;N&quot;,&quot;glyphIndex&quot;:2,&quot;word&quot;:1}"/>
        <path d="M376.63452,194.57764h-38.16905c-1.892,0 -2.38557,0.90487 -2.38557,2.38557v6.82765c0,1.4807 0.49357,2.38557 2.38557,2.38557h12.66817v40.14331c0,1.892 0.90487,2.38557 2.38557,2.38557h8.14383c1.4807,0 2.38557,-0.49357 2.38557,-2.38557v-40.14331h12.58591c1.892,0 2.38557,-0.90487 2.38557,-2.38557v-6.82765c0,-1.4807 -0.49357,-2.38557 -2.38557,-2.38557z" data-paper-data="{&quot;glyphName&quot;:&quot;T&quot;,&quot;glyphIndex&quot;:3,&quot;word&quot;:1}"/>
        <path d="M429.77504,211.93469c0,-12.99722 -12.33913,-18.59096 -22.12818,-18.59096c-9.78904,0 -21.96365,5.59374 -21.96365,18.59096v19.41357c0,12.99722 12.17461,18.59096 21.96365,18.59096c9.78904,0 22.12818,-5.59374 22.12818,-18.59096zM416.86009,230.1966c0,5.2647 -3.784,8.30835 -9.21322,8.30835c-5.34696,0 -9.13096,-3.04365 -9.13096,-8.30835v-17.11026c0,-5.2647 3.784,-8.30835 9.13096,-8.30835c5.42922,0 9.21322,3.04365 9.21322,8.30835z" data-paper-data="{&quot;glyphName&quot;:&quot;O&quot;,&quot;glyphIndex&quot;:4,&quot;word&quot;:1}"/>
        <path d="M484.64305,246.07295l-11.59878,-16.86348c5.10017,-1.72748 11.43426,-7.73252 11.43426,-16.36991c0,-5.2647 -1.72748,-9.95357 -4.77113,-12.91496c-3.45496,-3.45496 -7.40348,-5.2647 -16.36991,-5.2647h-20.72974c-1.892,0 -2.3033,0.90487 -2.3033,2.38557v49.27426c0,1.892 0.82261,2.38557 2.3033,2.38557h8.14383c1.4807,0 2.38557,-0.49357 2.38557,-2.38557v-40.14331h10.9407c4.27757,0 7.568,2.71461 7.568,6.99217c0,3.86626 -3.784,6.66313 -7.81478,6.66313h-1.64522c-1.892,0 -2.38557,0.90487 -2.38557,2.38557v6.58087c0,2.3033 0.16452,3.20817 0.90487,4.1953l8.88417,13.244c1.15165,1.72748 2.13878,2.46783 4.11304,2.46783h9.70678c1.56296,0 1.97426,-1.4807 1.23391,-2.63235z" data-paper-data="{&quot;glyphName&quot;:&quot;R&quot;,&quot;glyphIndex&quot;:5,&quot;lastGlyphOfWord&quot;:true,&quot;word&quot;:1}"/>
      </g>
      <g data-paper-data="{&quot;isIcon&quot;:&quot;true&quot;,&quot;selectedEffects&quot;:{&quot;container&quot;:&quot;&quot;,&quot;transformation&quot;:&quot;&quot;,&quot;pattern&quot;:&quot;&quot;},&quot;fillRule&quot;:&quot;evenodd&quot;,&quot;fillRuleOriginal&quot;:&quot;evenodd&quot;,&quot;iconType&quot;:&quot;icon&quot;,&quot;rawIconId&quot;:&quot;3012471&quot;,&quot;combineTerms&quot;:&quot;sight&quot;,&quot;iconStyle&quot;:&quot;standalone&quot;,&quot;bounds&quot;:{&quot;x&quot;:65,&quot;y&quot;:183.06851760565752,&quot;width&quot;:79.0737467869499,&quot;height&quot;:103.86296478868496},&quot;suitableAsStandaloneIcon&quot;:true}" fill-rule="evenodd">
        <path d="M104.53687,205.50467c2.40778,0 4.37779,-1.97001 4.37779,-4.37779v-13.68058c0,-2.40778 -1.97001,-4.37779 -4.37779,-4.37779c-2.40778,0 -4.37779,1.97001 -4.37779,4.37779v13.57113c0,2.40778 1.97001,4.48723 4.37779,4.48723zM78.16072,206.92745c0.76611,1.64167 2.29834,2.51723 4.04945,2.51723c0.65667,0 1.20389,-0.10945 1.86056,-0.43778c2.18889,-0.985 3.1739,-3.61167 2.18889,-5.80056l-5.91001,-12.58613c-0.985,-2.18889 -3.61167,-3.1739 -5.80056,-2.18889c-2.18889,0.985 -3.1739,3.61167 -2.18889,5.80056zM125.00302,209.0069c0.54722,0.32833 1.20389,0.43778 1.86056,0.43778c1.64167,0 3.28334,-0.985 4.04945,-2.51723l5.80056,-12.58613c0.985,-2.18889 0.10945,-4.81556 -2.18889,-5.80056c-2.18889,-0.985 -4.81556,-0.10945 -5.80056,2.18889l-5.80056,12.58613c-1.09445,2.07945 -0.10945,4.70612 2.07945,5.69112zM143.17083,232.5375c-0.65667,-0.76611 -17.4017,-20.24726 -38.63396,-20.24726c-21.23226,0 -37.97729,19.48114 -38.63396,20.3567c-1.20389,1.42278 -1.20389,3.61167 0,5.03446c0.65667,0.65667 17.4017,20.13781 38.63396,20.13781c21.23226,0 37.97729,-19.48114 38.63396,-20.3567c1.20389,-1.31334 1.20389,-3.50223 0,-4.92501zM101.47242,222.2497c2.62667,0 4.81556,2.18889 4.81556,4.81556c0,2.62667 -2.18889,4.81556 -4.81556,4.81556c-2.62667,0 -4.81556,-2.18889 -4.81556,-4.81556c0,-2.62667 2.07945,-4.81556 4.81556,-4.81556zM104.53687,250.15808c-13.46169,0 -25.39115,-10.17835 -30.31616,-14.99392c3.06445,-3.06445 9.08391,-8.31779 16.41669,-11.71057c-0.76611,1.75111 -1.20389,3.72112 -1.20389,5.80056c0,8.31779 6.78557,15.10336 15.10336,15.10336c8.31779,0 15.10336,-6.78557 15.10336,-15.10336c0,-2.07945 -0.43778,-4.04945 -1.20389,-5.80056c7.33279,3.39278 13.35225,8.64612 16.41669,11.71057c-4.92501,4.70612 -16.85448,14.99392 -30.31616,14.99392zM130.91303,263.18199c-0.985,-2.18889 -3.61167,-3.1739 -5.80056,-2.18889c-2.18889,0.985 -3.1739,3.61167 -2.18889,5.80056l5.80056,12.58613c0.76611,1.64167 2.29834,2.51723 4.04945,2.51723c0.65667,0 1.20389,-0.10945 1.86056,-0.43778c2.18889,-0.985 3.1739,-3.61167 2.18889,-5.80056zM84.07072,261.10255c-2.18889,-0.985 -4.81556,-0.10945 -5.80056,2.18889l-5.80056,12.58613c-0.985,2.18889 -0.10945,4.81556 2.18889,5.80056c0.54722,0.32833 1.20389,0.43778 1.86056,0.43778c1.64167,0 3.28334,-0.985 4.04945,-2.51723l5.80056,-12.58613c0.87556,-2.29834 -0.10945,-4.92501 -2.29834,-5.91001zM104.53687,264.60477c-2.40778,0 -4.37779,1.97001 -4.37779,4.37779v13.57113c0,2.40778 1.97001,4.37779 4.37779,4.37779c2.40778,0 4.37779,-1.97001 4.37779,-4.37779v-13.46169c0,-2.40778 -1.97001,-4.48723 -4.37779,-4.48723z" data-paper-data="{&quot;isPathIcon&quot;:true}"/>
      </g>
    </g>
  </g>
  <g class="watermark-group" style="opacity:0.040000010281801224" transform="matrix(1, 0, 0, 1, -34.445851, -71.590166)"/>
</svg>